# xmcd
#
# Track frame offsets: 
#        150
#        19087
#        34050
#        51337
#        67787
#        80887
#        97175
#        114125
#        131000
#        145050
#        157275
#        173750
#        188412
#        203725
#        221575
#
# Disc length: 3165 seconds
#
# Revision: 0
# Processed by: cddbd v1.5.1PL2 Copyright (c) Steve Scherf et al.
# Submitted via: ExactAudioCopy v0.95b4
#
DISCID=d10c5b0f
DTITLE=Various Artist - Swethearts Of The Rafdio 
DYEAR=1993
DGENRE=Country
TTITLE0=Jane Saunders - Life In A Small Town
TTITLE1=The Kanes - Kathleen
TTITLE2=Shanley Del - Red Roses
TTITLE3=Anne Kirkpatrick - Whites Of Your Eyes
TTITLE4=The Sparnets -  I Haven't Got A Car
TTITLE5=Caroline West - Over You
TTITLE6=Tess McKenna - Faded Hearts
TTITLE7=Renee Geyer - Someday I'll Take Home The Roses
TTITLE8=Jennie Vaughn - It'll Come To Me
TTITLE9=Tina Maree - I'll Be Gone
TTITLE10=Angie Marquis - Ain't No Return
TTITLE11=Jane Saunders - Lonely Blue Heart
TTITLE12=Rosemary Rae - Making Love To Merle
TTITLE13=Donna Reynolds - Unwed Fathers
TTITLE14=Gina Jeffreys - Two Stars fell
EXTD=
EXTT0=
EXTT1=
EXTT2=
EXTT3=
EXTT4=
EXTT5=
EXTT6=
EXTT7=
EXTT8=
EXTT9=
EXTT10=
EXTT11=
EXTT12=
EXTT13=
EXTT14=
PLAYORDER=
